<?xml version="1.0" encoding="UTF-8" standalone="no"?>
<!-- Created with Inkscape (http://www.inkscape.org/) -->

<svg
   xmlns:dc="http://purl.org/dc/elements/1.1/"
   xmlns:cc="http://creativecommons.org/ns#"
   xmlns:rdf="http://www.w3.org/1999/02/22-rdf-syntax-ns#"
   xmlns:svg="http://www.w3.org/2000/svg"
   xmlns="http://www.w3.org/2000/svg"
   xmlns:sodipodi="http://sodipodi.sourceforge.net/DTD/sodipodi-0.dtd"
   xmlns:inkscape="http://www.inkscape.org/namespaces/inkscape"
   width="95.873772mm"
   height="31.092422mm"
   viewBox="0 0 95.873772 31.092422"
   version="1.1"
   id="svg8"
   inkscape:version="0.92.3 (2405546, 2018-03-11)"
   sodipodi:docname="drawing.svg">
  <defs
     id="defs2">
    <clipPath
       id="clipPath3745"
       clipPathUnits="userSpaceOnUse">
      <path
         inkscape:connector-curvature="0"
         id="path3743"
         d="M 0,841.89 H 595.28 V 0 H 0 Z" />
    </clipPath>
  </defs>
  <sodipodi:namedview
     id="base"
     pagecolor="#ffffff"
     bordercolor="#666666"
     borderopacity="1.0"
     inkscape:pageopacity="0.0"
     inkscape:pageshadow="2"
     inkscape:zoom="0.49497475"
     inkscape:cx="661.31361"
     inkscape:cy="-503.75153"
     inkscape:document-units="mm"
     inkscape:current-layer="layer1"
     showgrid="false"
     inkscape:window-width="1869"
     inkscape:window-height="1053"
     inkscape:window-x="51"
     inkscape:window-y="27"
     inkscape:window-maximized="1"
     fit-margin-top="0"
     fit-margin-left="0"
     fit-margin-right="0"
     fit-margin-bottom="0" />
  <metadata
     id="metadata5">
    <rdf:RDF>
      <cc:Work
         rdf:about="">
        <dc:format>image/svg+xml</dc:format>
        <dc:type
           rdf:resource="http://purl.org/dc/dcmitype/StillImage" />
        <dc:title></dc:title>
      </cc:Work>
    </rdf:RDF>
  </metadata>
  <g
     inkscape:label="Layer 1"
     inkscape:groupmode="layer"
     id="layer1"
     transform="translate(-1.4724558,-1.2874433)">
    <g
       transform="matrix(0.35277777,0,0,-0.35277777,-55.973252,165.38608)"
       inkscape:label="system logo"
       id="g3721"
       inkscape:export-filename="/home/kim/g3721.png"
       inkscape:export-xdpi="96"
       inkscape:export-ydpi="96">
      <g
         transform="translate(204.1216,463.3066)"
         id="g3723">
        <path
           inkscape:connector-curvature="0"
           id="path3725"
           style="fill:#231f20;fill-opacity:1;fill-rule:nonzero;stroke:none"
           d="m 0,0 h 17.835 l 5.706,-27.111 h 0.708 L 30.814,0 H 48.508 L 32.601,-48.836 V -84.588 H 14.624 v 35.754 z" />
      </g>
      <g
         transform="translate(295.4536,463.3013)"
         id="g3727">
        <path
           inkscape:connector-curvature="0"
           id="path3729"
           style="fill:#231f20;fill-opacity:1;fill-rule:nonzero;stroke:none"
           d="m 0,0 v -17.592 h 12.25 v -66.963 h 19.76 v 66.963 H 44.282 V 0 Z" />
      </g>
      <g
         transform="translate(379.4785,378.7188)"
         id="g3731">
        <path
           inkscape:connector-curvature="0"
           id="path3733"
           style="fill:#231f20;fill-opacity:1;fill-rule:nonzero;stroke:none"
           d="M 0,0 H -37.383 V 84.583 H -0.014 V 66.976 H -19.058 V 52.35 H -4.21 V 34.678 l -14.848,0.021 V 17.584 H 0 Z" />
      </g>
      <g
         transform="translate(403.5254,378.7354)"
         id="g3735">
        <path
           inkscape:connector-curvature="0"
           id="path3737"
           style="fill:#231f20;fill-opacity:1;fill-rule:nonzero;stroke:none"
           d="m 0,0 h 11.052 l 6.498,49.451 h 0.83 V -0.011 H 31.081 V 84.566 H 9.982 L 5.716,48.874 H 5.191 L 0.114,84.566 H -20.669 V -0.021 h 13.646 v 49.472 h 0.701 z" />
      </g>
      <g
         id="g3739">
        <g
           clip-path="url(#clipPath3745)"
           id="g3741">
          <g
             transform="translate(187.1377,433.9575)"
             id="g3747">
            <path
               inkscape:connector-curvature="0"
               id="path3749"
               style="fill:#231f20;fill-opacity:1;fill-rule:nonzero;stroke:none"
               d="m 0,0 h 17.129 v 13.192 c 0,1.874 0.421,18.012 -19.2,18.012 -10.173,0 -22.222,-2.601 -22.222,-21.467 0,-1.938 -0.62,-12.379 10.279,-22.828 5.314,-5.093 11.455,-9.221 13.706,-17.474 0.591,-2.168 0.662,-7.62 0.264,-9.275 -0.399,-1.657 -1.098,-2.772 -2.751,-3.008 -1.278,-0.184 -3.644,0.273 -3.644,3.661 v 16.497 h -17.537 v -12.659 c 0,-5.043 0.24,-21.583 21.3,-21.583 8.384,0 20.139,3.158 20.139,22.469 0,11.475 -2.417,16.522 -9.865,24.506 -6.447,6.913 -12.46,11.575 -13.346,17.539 -0.442,2.98 -0.414,5.02 -0.177,6.732 0.18,1.309 0.886,3.662 3.098,3.662 C -0.181,17.976 0,15.042 0,13.96 Z" />
          </g>
          <g
             transform="translate(276.4019,433.9575)"
             id="g3751">
            <path
               inkscape:connector-curvature="0"
               id="path3753"
               style="fill:#231f20;fill-opacity:1;fill-rule:nonzero;stroke:none"
               d="m 0,0 h 17.129 v 13.192 c 0,1.874 0.421,18.012 -19.2,18.012 -10.173,0 -22.222,-2.601 -22.222,-21.467 0,-1.938 -0.62,-12.379 10.28,-22.828 5.313,-5.093 11.455,-9.221 13.705,-17.474 0.591,-2.168 0.663,-7.62 0.264,-9.275 -0.399,-1.657 -1.098,-2.772 -2.751,-3.008 -1.277,-0.184 -3.644,0.273 -3.644,3.661 v 16.497 h -17.536 v -12.659 c 0,-5.043 0.239,-21.583 21.3,-21.583 8.383,0 20.139,3.158 20.139,22.469 0,11.475 -2.418,16.522 -9.866,24.506 -6.447,6.913 -12.46,11.575 -13.346,17.539 -0.442,2.98 -0.413,5.02 -0.177,6.732 0.181,1.309 0.886,3.662 3.098,3.662 C -0.181,17.976 0,15.042 0,13.96 Z" />
          </g>
        </g>
      </g>
    </g>
  </g>
</svg>
